<?xml version='1.0' encoding='iso-8859-1'?>
<svg version="1.1" fill="#F7F7F8" xmlns="http://www.w3.org/2000/svg" viewBox="0 0 137.144 137.144" xmlns:xlink="http://www.w3.org/1999/xlink" enable-background="new 0 0 137.144 137.144">
  <g>
    <g>
      <path d="m54.858,109.716h6.857v-82.287h-6.857v82.287zm54.857-109.716h-82.286c-15.149,0-27.429,12.281-27.429,27.429v82.286c0,15.149 12.28,27.429 27.429,27.429h82.286c15.148,0 27.429-12.28 27.429-27.429v-82.286c0-15.148-12.28-27.429-27.429-27.429zm13.715,102.858c0,11.361-9.21,20.572-20.572,20.572h-68.572c-11.361,0-20.571-9.21-20.571-20.572v-68.572c0-11.361 9.21-20.572 20.571-20.572h68.572c11.362,0 20.572,9.21 20.572,20.572v68.572zm-82.287-54.857l-20.571,17.357 20.571,16.928v-13.713h6.857v-6.858h-6.857v-13.714zm54.858,13.714h-6.857v6.858h6.857v13.714l20.571-16.928-20.571-17.358v13.714zm-20.572,48.001h6.857v-82.287h-6.857v82.287z"/>
    </g>
  </g>
</svg>
